<?xml version="1.0" encoding="utf-8"?>
<!-- Generator: Adobe Illustrator 25.4.1, SVG Export Plug-In . SVG Version: 6.00 Build 0)  -->
<svg version="1.1" id="Layer_1" xmlns="http://www.w3.org/2000/svg" xmlns:xlink="http://www.w3.org/1999/xlink" x="0px" y="0px"
	 viewBox="0 0 1382 382.4" style="enable-background:new 0 0 1382 382.4;" xml:space="preserve">
<style type="text/css">
	.st0{fill:url(#SVGID_1_);}
	.st1{fill:url(#SVGID_00000166642094545404414590000008799933517770001281_);}
	.st2{fill:url(#SVGID_00000111873218035283018010000016625164542584808109_);}
	.st3{fill:url(#SVGID_00000121263352731899077360000006980095233127839129_);}
	.st4{fill:#212728;}
	.st5{fill:url(#SVGID_00000144311884994378523220000000066257227277583776_);}
	.st6{fill:url(#SVGID_00000119802207670060876210000005069170796312110775_);}
	.st7{fill:url(#SVGID_00000098221937182266213710000012241627586194991533_);}
	.st8{fill:url(#SVGID_00000034778964726924456740000009134397684044216760_);}
	.st9{fill:url(#SVGID_00000044898673908415695340000016278304980700230073_);}
	.st10{fill:url(#SVGID_00000087370709448938583830000014657565714888146864_);}
	.st11{fill:url(#SVGID_00000121980833979527575830000001437783725053159076_);}
	.st12{fill:url(#SVGID_00000136382867260114813070000012318994814880400521_);}
	.st13{fill:#FFFFFF;}
	.st14{fill:url(#SVGID_00000095311501591787743880000016413022965417722814_);}
	.st15{fill:url(#SVGID_00000009567751978128156920000016290804910593741230_);}
	.st16{fill:url(#SVGID_00000181087221798900762190000017986145037381442474_);}
	.st17{fill:url(#SVGID_00000085211534534778506320000017857062301015499691_);}
	.st18{fill:url(#SVGID_00000034085872816545365370000001719313693199698066_);}
	.st19{fill:url(#SVGID_00000158708359819477455680000004124914158855007679_);}
	.st20{fill:url(#SVGID_00000142143916105198295590000015638238087258159752_);}
	.st21{fill:url(#SVGID_00000022548710810472956630000003879655487932679562_);}
	.st22{fill:url(#SVGID_00000181804729740200156130000017805614747274934174_);}
	.st23{fill:url(#SVGID_00000110461963992261359430000015558316771848045473_);}
	.st24{fill:url(#SVGID_00000137834632858548316940000004414279171990081433_);}
	.st25{fill:url(#SVGID_00000025410385497979501080000003106744969962402700_);}
</style>
<g>
	<g>
		<path class="st4" d="M552.2,312.4c-16.3,0-31.4-3-45.2-8.9c-13.9-5.9-26-14.2-36.4-24.8c-10.4-10.6-18.5-23-24.4-37.3
			c-5.9-14.3-8.9-29.8-8.9-46.7c0-16.9,2.8-32.5,8.4-46.9c5.6-14.4,13.6-26.8,24-37.3c10.4-10.5,22.5-18.6,36.2-24.4
			c13.7-5.8,28.8-8.7,45.1-8.7c16.3,0,31,2.8,44,8.3c13,5.5,24,12.8,33,21.8c9,9.1,15.4,19,19.3,29.8l-37,17.7
			c-4.5-11.8-11.8-21.4-22-28.7c-10.2-7.3-22.6-11-37.3-11c-14.1,0-26.5,3.4-37.4,10.1c-10.9,6.7-19.4,16-25.4,28
			c-6,11.9-9,25.7-9,41.4c0,15.9,3.1,29.8,9.3,41.7c6.2,11.9,14.9,21.2,26,28c11.1,6.7,23.7,10.1,37.7,10.1c11.4,0,22-2.3,31.9-6.9
			c9.9-4.6,17.7-11.1,23.5-19.6c5.8-8.5,8.7-18.5,8.7-30.1v-17.7l19.3,16.8H551v-35.1h107.3v22.9c0,17.7-3,33.3-8.9,46.6
			c-5.9,13.3-13.9,24.6-24,33.8c-10.1,9.2-21.4,16-34.1,20.5C578.7,310.1,565.7,312.4,552.2,312.4z"/>
		<path class="st4" d="M768.9,312.4c-16.1,0-30.8-3.8-44.1-11.3c-13.3-7.5-24-17.9-31.9-31c-7.9-13.1-11.9-28.1-11.9-44.8
			c0-16.7,3.9-31.6,11.8-44.6c7.8-13,18.4-23.3,31.8-30.7c13.3-7.4,28.2-11.2,44.5-11.2c16.5,0,31.4,3.7,44.6,11.2
			c13.2,7.4,23.8,17.7,31.6,30.7c7.8,13,11.8,27.9,11.8,44.6c0,16.7-4,31.6-11.9,44.8c-7.9,13.1-18.5,23.5-31.8,31
			C799.9,308.6,785.2,312.4,768.9,312.4z M768.9,275.7c9,0,16.9-2.1,23.7-6.4c6.8-4.3,12.3-10.2,16.3-17.7c4.1-7.5,6.1-16.2,6.1-26
			c0-9.6-2-18.1-6-25.5c-4-7.4-9.4-13.3-16.3-17.7c-6.9-4.4-14.9-6.6-23.8-6.6c-9,0-16.9,2.2-23.8,6.6c-6.9,4.4-12.4,10.2-16.3,17.6
			c-4,7.3-6,15.8-6,25.4c0,9.8,1.9,18.5,5.8,26.1c3.9,7.6,9.3,13.6,16.3,17.9C751.9,273.6,759.9,275.7,768.9,275.7z"/>
		<path class="st4" d="M886.8,308.7V142.5H925v33l-3.1-6.1c3.9-10.2,10.2-17.8,18.9-22.9c8.8-5.1,19-7.6,30.9-7.6
			c12.4,0,23.3,2.7,32.7,7.9c9.4,5.3,16.7,12.6,22.2,22c5.4,9.4,8.1,20.3,8.1,32.7v107.3h-40.3v-97.5c0-7.3-1.4-13.6-4.3-18.9
			c-2.9-5.3-6.8-9.4-11.8-12.2c-5-2.9-10.7-4.3-17.3-4.3c-6.7,0-12.6,1.4-17.7,4.3c-5.1,2.9-9.1,7-11.9,12.4
			c-2.9,5.4-4.3,11.7-4.3,18.8v97.5H886.8z"/>
		<path class="st4" d="M1053.6,308.7V276l96.9-111.2l5.8,13.4h-98.1v-35.7h134.1v32.7L1097.6,287l-6.4-14.1h101.4v35.7H1053.6z"/>
		<path class="st4" d="M1265.7,312.4c-11.6,0-21.7-2-30.4-6c-8.7-4-15.3-9.5-20-16.6c-4.7-7.1-7-15.6-7-25.4c0-9,2.1-17.1,6.3-24.3
			c4.2-7.2,10.5-13.3,19.1-18.2c8.6-4.9,19.2-8.4,32.1-10.4l54.7-8.9v30.6l-46.8,8.3c-7.9,1.2-13.9,3.7-17.7,7.3
			c-3.9,3.7-5.8,8.5-5.8,14.4c0,5.5,2.2,10,6.6,13.4c4.4,3.5,9.8,5.2,16.3,5.2c8.3,0,15.7-1.8,22.2-5.5c6.4-3.7,11.4-8.6,15-14.8
			c3.6-6.2,5.3-13,5.3-20.3v-43.1c0-7.1-2.8-13-8.4-17.7c-5.6-4.7-13.1-7-22.5-7c-8.3,0-15.8,2.3-22.3,6.9
			c-6.5,4.6-11.4,10.5-14.7,17.9l-32.7-15.9c3.3-8.8,8.4-16.4,15.4-22.8c7-6.4,15.3-11.5,24.9-15.1c9.6-3.7,20-5.5,31.2-5.5
			c13.6,0,25.7,2.5,36.1,7.5c10.4,5,18.5,12,24.3,20.9c5.8,9,8.7,19.3,8.7,30.9v110.6h-37.9v-28.4l8.6-0.3
			c-4.5,6.9-9.7,12.8-15.6,17.7c-5.9,4.9-12.6,8.6-20,11C1283.2,311.1,1274.9,312.4,1265.7,312.4z"/>
	</g>
	<g>
		<linearGradient id="SVGID_1_" gradientUnits="userSpaceOnUse" x1="145.8706" y1="226.3887" x2="149.6193" y2="226.3887">
			<stop  offset="0" style="stop-color:#FF364E"/>
			<stop  offset="1" style="stop-color:#5B0404"/>
		</linearGradient>
		<path class="st0" d="M145.9,221.7c1.2,3.2,2.5,6.3,3.7,9.4C148.1,228,146.9,224.9,145.9,221.7z"/>
		
			<linearGradient id="SVGID_00000110430898865810199590000002717049576846198166_" gradientUnits="userSpaceOnUse" x1="226.5594" y1="331.8139" x2="87.2651" y2="52.5182">
			<stop  offset="0" style="stop-color:#FF364E"/>
			<stop  offset="1" style="stop-color:#5B0404"/>
		</linearGradient>
		<path style="fill:url(#SVGID_00000110430898865810199590000002717049576846198166_);" d="M118.4,128.6
			C87,167.6,83.4,220,107,261.9l-85.6-96c-10.2-11.3-11.5-28-3.4-40.9l56.4-89.7c6.3-9.9,17.2-15.9,28.9-15.9h91.1
			C123.2,19.3,108.7,67.9,118.4,128.6z M193.2,321.8L193.2,321.8c-18.4-2.7-36-9.9-51.7-21.3l46.1,51.7c7.8,8.7,18.8,12.4,29.3,11.2
			C215.1,360.4,205.6,344.8,193.2,321.8z"/>
		
			<linearGradient id="SVGID_00000155115671079256248110000017630043560733946276_" gradientUnits="userSpaceOnUse" x1="289.7053" y1="355.019" x2="314.453" y2="93.4002">
			<stop  offset="0" style="stop-color:#FF364E"/>
			<stop  offset="1" style="stop-color:#5B0404"/>
		</linearGradient>
		<path style="fill:url(#SVGID_00000155115671079256248110000017630043560733946276_);" d="M405,161.6l-89,101.9
			c28.3-43,25.3-96.2-17-138.5l-13.9-13.9l-81.4,81.4l32.5,32.4l43.3-43.3c9.7,21.3,5.1,45-16.4,66.5
			c-18.9,18.9-40.7,26.2-61.1,23.1c-3.7-43-3.1-94.3,10.9-138c3.2,0.1,6.2,0.4,9.1,1.1l12.4-45.6c22.9-32.9,59.8-54.7,117.7-53.9
			l10.6,16.3l45.2,69.3C416.3,133.3,415.1,150,405,161.6z M208.7,323c3.9,22.5,7.7,37.7,8.4,40.4c8.1-0.9,15.9-4.8,21.8-11.5
			l53.5-61.2C267.3,312.8,237.6,323.3,208.7,323z"/>
		
			<linearGradient id="SVGID_00000065043737193101362960000017595297988191050387_" gradientUnits="userSpaceOnUse" x1="234.9071" y1="23.869" x2="227.1293" y2="344.1753">
			<stop  offset="0" style="stop-color:#FF364E"/>
			<stop  offset="1" style="stop-color:#5B0404"/>
		</linearGradient>
		<path style="fill:url(#SVGID_00000065043737193101362960000017595297988191050387_);" d="M352.1,34.8
			c-57.9-0.8-94.8,21-117.7,53.9l1.1-4c-35.5-8.1-77,2.8-108.1,33.9c-3.2,3.2-6.3,6.6-9,10.1c-9.7-60.7,4.8-109.4,76.1-109.4h129
			C335,19.3,345.8,25.1,352.1,34.8z M212.9,133.3c-15.8-0.5-34.2,6.4-49.5,21.7c-18.7,18.7-24.8,43.6-17.5,66.7v0.1
			c1.2,3.2,2.5,6.3,3.7,9.4c0.1,0.2,0.2,0.4,0.3,0.6c3.5,6.9,8.4,13.6,14.4,19.7c11,11,24,17.8,37.7,19.9
			C198.4,228.3,198.9,177,212.9,133.3z M208.7,323c-5.1-0.1-10.4-0.5-15.5-1.2c12.5,23.1,21.9,38.6,23.8,41.6h0.1
			C216.4,360.7,212.6,345.5,208.7,323z"/>
	</g>
</g>
</svg>
