<?xml version="1.0" encoding="UTF-8" standalone="no"?>
<!DOCTYPE svg PUBLIC "-//W3C//DTD SVG 1.1//EN" "http://www.w3.org/Graphics/SVG/1.1/DTD/svg11.dtd">
<svg width="100%" height="100%" viewBox="0 0 1975 534" version="1.1" xmlns="http://www.w3.org/2000/svg" xmlns:xlink="http://www.w3.org/1999/xlink" xml:space="preserve" xmlns:serif="http://www.serif.com/" style="fill-rule:evenodd;clip-rule:evenodd;stroke-linejoin:round;stroke-miterlimit:2;">
    <g transform="matrix(1,0,0,1,-235.258,-288.521)">
        <g transform="matrix(4.16667,0,0,4.16667,0,0)">
            <g transform="matrix(1,0,0,1,214.288,114.074)">
                <path d="M0,0C0,-15.606 7.06,-23.409 21.182,-23.409C26.237,-23.409 31.026,-22.464 35.548,-20.574L35.548,-15.806C31.115,-17.776 26.505,-18.761 21.716,-18.761C15.927,-18.761 11.685,-17.25 8.99,-14.23C6.296,-11.209 4.949,-6.466 4.949,0C4.949,6.511 6.296,11.266 8.99,14.264C11.685,17.262 15.927,18.761 21.716,18.761C25.367,18.761 28.853,18.212 32.171,17.115L32.171,2.809L21.168,2.809L21.168,-1.973L37.12,-1.973L37.12,19.915C32.196,22.244 26.884,23.409 21.182,23.409C7.06,23.409 0,15.606 0,0" style="fill:rgb(37,40,43);fill-rule:nonzero;"/>
            </g>
        </g>
        <g transform="matrix(4.16667,0,0,4.16667,0,0)">
            <g transform="matrix(1,0,0,1,266.924,129.825)">
                <path d="M0,-19.998C-1.762,-17.902 -2.642,-14.569 -2.642,-9.999C-2.642,-5.429 -1.762,-2.095 0,0C1.761,2.096 4.581,3.144 8.461,3.144C12.34,3.144 15.166,2.107 16.938,0.033C18.711,-2.04 19.597,-5.384 19.597,-9.999C19.597,-14.614 18.711,-17.958 16.938,-20.032C15.166,-22.105 12.34,-23.142 8.461,-23.142C4.581,-23.142 1.761,-22.093 0,-19.998M-6.153,-1.12C-7.112,-3.561 -7.592,-6.521 -7.592,-9.999C-7.592,-13.477 -7.112,-16.436 -6.153,-18.878C-5.195,-21.319 -3.891,-23.142 -2.24,-24.346C-0.591,-25.549 1.087,-26.402 2.792,-26.904C4.498,-27.405 6.382,-27.656 8.444,-27.656C10.506,-27.656 12.401,-27.405 14.129,-26.904C15.856,-26.402 17.545,-25.549 19.195,-24.346C20.845,-23.142 22.149,-21.319 23.108,-18.878C24.066,-16.436 24.546,-13.477 24.546,-9.999C24.546,-6.521 24.066,-3.561 23.108,-1.12C22.149,1.321 20.845,3.144 19.195,4.347C17.545,5.551 15.856,6.404 14.129,6.906C12.401,7.407 10.506,7.658 8.444,7.658C6.382,7.658 4.498,7.407 2.792,6.906C1.087,6.404 -0.591,5.551 -2.24,4.347C-3.891,3.144 -5.195,1.321 -6.153,-1.12" style="fill:rgb(37,40,43);fill-rule:nonzero;"/>
            </g>
        </g>
        <g transform="matrix(4.16667,0,0,4.16667,0,0)">
            <g transform="matrix(1,0,0,1,299.33,102.169)">
                <path d="M0,34.779L0,3.344C4.486,1.115 9.307,0 14.463,0C18.761,0 22.095,1.092 24.467,3.277C26.838,5.462 28.024,8.539 28.024,12.507L28.024,34.779L23.075,34.779L23.075,12.507C23.075,11.549 22.975,10.696 22.774,9.948C22.573,9.202 22.185,8.405 21.606,7.557C21.027,6.711 20.093,6.058 18.802,5.601C17.512,5.144 15.887,4.916 13.929,4.916C11.058,4.916 8.064,5.373 4.949,6.287L4.949,34.779L0,34.779Z" style="fill:rgb(37,40,43);fill-rule:nonzero;"/>
            </g>
        </g>
        <g transform="matrix(4.16667,0,0,4.16667,0,0)">
            <g transform="matrix(1,0,0,1,336.082,102.771)">
                <path d="M0,34.177L0,29.793L18.628,4.648L0.469,4.648L0.469,0L25.015,0L25.015,4.253L6.254,29.529L25.015,29.529L25.015,34.177L0,34.177Z" style="fill:rgb(37,40,43);fill-rule:nonzero;"/>
            </g>
        </g>
        <g transform="matrix(4.16667,0,0,4.16667,0,0)">
            <g transform="matrix(1,0,0,1,372.6,113.205)">
                <path d="M0,13.243C0,17.501 3.094,19.63 9.28,19.63L9.38,19.63C15.433,19.63 18.46,17.568 18.46,13.442L18.46,6.889C16.947,6.621 14.922,6.488 12.385,6.488C4.128,6.488 0,8.74 0,13.243M-4.949,13.243C-4.949,11.706 -4.665,10.33 -4.097,9.112C-3.528,7.894 -2.831,6.907 -2.006,6.15C-1.182,5.392 -0.134,4.745 1.138,4.207C2.408,3.67 3.533,3.275 4.515,3.022C5.496,2.77 6.66,2.577 8.01,2.446C9.358,2.314 10.317,2.237 10.886,2.215C11.454,2.193 12.128,2.181 12.909,2.181L18.394,2.508C18.394,-0.594 17.553,-2.808 15.873,-4.133C14.192,-5.457 11.706,-6.12 8.412,-6.12C4.713,-6.12 1.382,-5.573 -1.582,-4.481L-1.582,-9.263C1.782,-10.445 5.203,-11.036 8.68,-11.036C13.467,-11.036 17.118,-9.826 19.635,-7.407C22.151,-4.988 23.409,-1.449 23.409,3.21L23.409,13.477C23.409,15.662 22.902,17.529 21.89,19.078C20.876,20.628 19.573,21.748 17.981,22.439C16.389,23.131 14.896,23.61 13.505,23.877C12.113,24.145 10.738,24.279 9.38,24.279C8.331,24.279 7.254,24.211 6.149,24.077C5.044,23.943 3.794,23.636 2.399,23.155C1.004,22.675 -0.207,22.059 -1.233,21.31C-2.26,20.561 -3.136,19.488 -3.861,18.09C-4.587,16.693 -4.949,15.077 -4.949,13.243" style="fill:rgb(37,40,43);fill-rule:nonzero;"/>
            </g>
        </g>
        <g transform="matrix(4.16667,0,0,4.16667,0,0)">
            <g transform="matrix(1,0,0,1,227.831,168.293)">
                <path d="M0,-2.541L6.99,-2.541C8.595,-2.541 9.977,-3.098 11.137,-4.213C12.296,-5.328 12.876,-6.755 12.876,-8.494C12.876,-10.277 12.296,-11.727 11.137,-12.841C9.977,-13.956 8.595,-14.514 6.99,-14.514L0,-14.514L0,-2.541ZM-11.771,21.57L-11.771,-24.111L6.237,-24.111C11.806,-24.111 16.267,-22.812 19.619,-20.215C22.971,-17.618 24.646,-13.967 24.646,-9.263C24.646,-5.63 23.813,-2.642 22.146,-0.299C20.479,2.045 18.256,3.676 15.477,4.595L26.513,21.57L13.376,21.57L4.883,6.388L0,6.388L0,21.57L-11.771,21.57Z" style="fill:rgb(37,40,43);fill-rule:nonzero;"/>
            </g>
        </g>
        <g transform="matrix(4.16667,0,0,4.16667,0,0)">
            <g transform="matrix(1,0,0,1,274.716,177.324)">
                <path d="M0,-20.668C-1.762,-18.75 -2.642,-15.306 -2.642,-10.334C-2.642,-5.362 -1.762,-1.918 0,-0.001C1.761,1.917 4.102,2.875 7.022,2.875C9.943,2.875 12.284,1.917 14.045,-0.001C15.807,-1.918 16.687,-5.362 16.687,-10.334C16.687,-15.306 15.807,-18.75 14.045,-20.668C12.284,-22.585 9.943,-23.544 7.022,-23.544C4.102,-23.544 1.761,-22.585 0,-20.668M-13.109,-0.536C-13.979,-3.367 -14.413,-6.633 -14.413,-10.334C-14.413,-14.034 -13.979,-17.301 -13.109,-20.133C-12.24,-22.964 -11.108,-25.21 -9.715,-26.871C-8.322,-28.532 -6.655,-29.892 -4.716,-30.951C-2.775,-32.009 -0.87,-32.717 1.003,-33.074C2.876,-33.431 4.882,-33.609 7.022,-33.609C9.163,-33.609 11.169,-33.431 13.042,-33.074C14.915,-32.717 16.821,-32.009 18.761,-30.951C20.7,-29.892 22.366,-28.532 23.76,-26.871C25.153,-25.21 26.285,-22.964 27.154,-20.133C28.024,-17.301 28.459,-14.034 28.459,-10.334C28.459,-6.633 28.024,-3.367 27.154,-0.536C26.285,2.296 25.153,4.542 23.76,6.203C22.366,7.864 20.7,9.224 18.761,10.283C16.821,11.342 14.915,12.05 13.042,12.406C11.169,12.763 9.163,12.941 7.022,12.941C4.882,12.941 2.876,12.763 1.003,12.406C-0.87,12.05 -2.775,11.342 -4.716,10.283C-6.655,9.224 -8.322,7.864 -9.715,6.203C-11.108,4.542 -12.24,2.296 -13.109,-0.536" style="fill:rgb(37,40,43);fill-rule:nonzero;"/>
            </g>
        </g>
        <g transform="matrix(4.16667,0,0,4.16667,0,0)">
            <g transform="matrix(1,0,0,1,324.31,153.781)">
                <path d="M0,26.485L6.956,26.485C8.495,26.507 9.81,26.115 10.902,25.306C12.039,24.454 12.608,23.174 12.608,21.468C12.608,19.762 11.973,18.517 10.702,17.731C9.431,16.946 8.037,16.552 6.521,16.552L0,16.552L0,26.485ZM0,8.259L6.054,8.259C7.146,8.259 8.138,7.916 9.029,7.226C9.921,6.539 10.367,5.606 10.367,4.429C10.367,2.875 9.854,1.748 8.829,1.048C7.804,0.349 6.644,-0.001 5.352,-0.001L0,-0.001L0,8.259ZM-11.771,36.083L-11.771,-9.598L3.866,-9.598C16.048,-9.598 22.139,-5.333 22.139,3.197C22.139,4.667 21.89,5.96 21.394,7.074C20.896,8.187 20.209,9.073 19.331,9.731C18.453,10.388 17.708,10.867 17.096,11.168C16.483,11.468 15.772,11.753 14.965,12.02C21.241,13.769 24.38,17.603 24.38,23.522C24.38,31.896 18,36.083 5.241,36.083L-11.771,36.083Z" style="fill:rgb(37,40,43);fill-rule:nonzero;"/>
            </g>
        </g>
        <g transform="matrix(4.16667,0,0,4.16667,0,0)">
            <g transform="matrix(1,0,0,1,372.767,163.847)">
                <path d="M0,6.353L9.264,6.353L4.683,-7.826L0,6.353ZM-19.027,26.017L-0.869,-19.664L10.233,-19.664L28.359,26.017L15.685,26.017L12.14,15.048L-2.809,15.048L-6.354,26.017L-19.027,26.017Z" style="fill:rgb(37,40,43);fill-rule:nonzero;"/>
            </g>
        </g>
        <g transform="matrix(4.16667,0,0,4.16667,0,0)">
            <g transform="matrix(1,0,0,1,0,60.559)">
                <rect x="408.985" y="83.624" width="11.771" height="45.681" style="fill:rgb(37,40,43);"/>
            </g>
        </g>
        <g transform="matrix(4.16667,0,0,4.16667,0,0)">
            <g transform="matrix(1,0,0,1,432.327,144.183)">
                <path d="M0,45.681L0,0L11.771,0L30.332,27.388L30.332,0L42.104,0L42.104,45.681L30.499,45.681L11.771,18.493L11.771,45.681L0,45.681Z" style="fill:rgb(37,40,43);fill-rule:nonzero;"/>
            </g>
        </g>
        <g transform="matrix(4.16667,0,0,4.16667,0,0)">
            <g transform="matrix(1,0,0,1,502.019,163.847)">
                <path d="M0,6.353L9.264,6.353L4.683,-7.826L0,6.353ZM-19.027,26.017L-0.869,-19.664L10.233,-19.664L28.359,26.017L15.685,26.017L12.14,15.048L-2.809,15.048L-6.354,26.017L-19.027,26.017Z" style="fill:rgb(37,40,43);fill-rule:nonzero;"/>
            </g>
        </g>
        <g transform="matrix(4.16667,0,0,4.16667,0,0)">
            <g transform="matrix(86.3291,-99.7749,-99.7749,-86.3291,103.772,182.854)">
                <path d="M0.83,0.356C0.823,0.365 0.814,0.371 0.803,0.375C0.752,0.393 0.588,0.446 0.391,0.46C0.194,0.474 0.022,0.445 -0.031,0.435C-0.042,0.433 -0.052,0.428 -0.061,0.421L-0.168,0.329C-0.181,0.318 -0.189,0.302 -0.19,0.285L-0.204,0.098C-0.205,0.081 -0.199,0.064 -0.188,0.051L0.298,-0.464C0.311,-0.479 0.332,-0.48 0.347,-0.468L0.899,-0.07C0.912,-0.059 0.92,-0.043 0.921,-0.026L0.938,0.204C0.939,0.221 0.933,0.237 0.922,0.25L0.83,0.356Z" style="fill:url(#_Linear1);fill-rule:nonzero;"/>
            </g>
        </g>
        <g transform="matrix(4.16667,0,0,4.16667,0,0)">
            <g transform="matrix(116.992,-50.9179,-50.9179,-116.992,55.3278,177.659)">
                <path d="M0.792,0.416C0.652,0.47 0.49,0.413 0.49,0.413C0.3,0.338 0.153,0.235 0.108,0.202C0.099,0.195 0.092,0.186 0.087,0.175L0.028,0.042C0.021,0.026 0.021,0.008 0.027,-0.008L0.098,-0.189C0.105,-0.205 0.117,-0.218 0.133,-0.225L0.815,-0.488C0.833,-0.496 0.855,-0.487 0.862,-0.469L1.042,-0.136C1.043,-0.132 1.044,-0.129 1.044,-0.125C1.065,-0.035 1.019,0.056 0.937,0.1C0.916,0.111 0.896,0.12 0.881,0.124C0.795,0.15 0.639,0.114 0.6,0.023C0.599,0.021 0.598,0.019 0.598,0.017C0.581,-0.028 0.594,-0.078 0.63,-0.108C0.652,-0.127 0.68,-0.138 0.708,-0.14L0.71,-0.14C0.747,-0.142 0.777,-0.163 0.756,-0.194C0.749,-0.203 0.701,-0.253 0.603,-0.221C0.46,-0.174 0.399,-0.004 0.479,0.126C0.532,0.214 0.639,0.257 0.739,0.231C0.776,0.221 0.807,0.204 0.833,0.181C0.852,0.165 0.877,0.157 0.901,0.16C0.976,0.168 1.008,0.258 0.956,0.312C0.92,0.349 0.875,0.38 0.816,0.406C0.808,0.409 0.8,0.413 0.792,0.416Z" style="fill:url(#_Linear2);fill-rule:nonzero;"/>
            </g>
        </g>
        <g transform="matrix(4.16667,0,0,4.16667,0,0)">
            <g transform="matrix(61.7108,-26.8581,-26.8581,-61.7108,93.3908,127.713)">
                <path d="M0.689,0.334C0.689,0.334 0.016,0.271 0.023,-0.334C0.179,-0.009 0.423,0.025 0.586,-0.017C0.656,-0.035 0.716,-0.068 0.765,-0.111C0.801,-0.142 0.85,-0.156 0.897,-0.151C1.038,-0.135 1.1,0.035 1.001,0.137C0.933,0.208 0.847,0.267 0.736,0.315C0.721,0.321 0.705,0.328 0.689,0.334Z" style="fill:url(#_Linear3);fill-rule:nonzero;"/>
            </g>
        </g>
        <g transform="matrix(4.16667,0,0,4.16667,0,0)">
            <g transform="matrix(39.9847,-17.4023,-17.4023,-39.9847,113.146,110.804)">
                <path d="M0.023,-0.193C0.167,-0.162 0.272,-0.185 0.335,-0.201C0.556,-0.099 0.866,-0.203 1.005,-0.291C1.068,-0.195 1.068,-0.059 0.975,0.037C0.958,0.055 0.93,0.072 0.893,0.088C0.67,0.185 0.143,0.221 0.023,-0.193Z" style="fill:url(#_Linear4);fill-rule:nonzero;"/>
            </g>
        </g>
        <g transform="matrix(4.16667,0,0,4.16667,0,0)">
            <g transform="matrix(106.401,-46.3083,-46.3083,-106.401,42.9819,148.538)">
                <path d="M0.868,0.185C0.715,0.245 0.536,0.183 0.536,0.183C0.327,0.1 0.166,-0.013 0.116,-0.05C0.106,-0.057 0.098,-0.067 0.093,-0.079L0.029,-0.225C0.021,-0.243 0.021,-0.263 0.028,-0.281L0.47,-0.252C0.59,0.246 0.94,0.119 1.049,0.071C1.01,0.112 0.96,0.146 0.895,0.174C0.887,0.178 0.878,0.182 0.868,0.185Z" style="fill:url(#_Linear5);fill-rule:nonzero;"/>
            </g>
        </g>
        <g transform="matrix(4.16667,0,0,4.16667,0,0)">
            <g transform="matrix(16.2363,-53.5834,-53.5834,-16.2363,72.0214,190.597)">
                <path d="M0.258,0.339C0.253,0.354 0.235,0.362 0.221,0.354C0.195,0.34 0.174,0.319 0.16,0.293L-0.048,-0.096C-0.067,-0.132 -0.071,-0.173 -0.059,-0.211L0.803,-0.366L0.258,0.339Z" style="fill:url(#_Linear6);fill-rule:nonzero;"/>
            </g>
        </g>
        <g transform="matrix(4.16667,0,0,4.16667,0,0)">
            <g transform="matrix(29.7549,-51.537,-51.537,-29.7549,144.724,178.37)">
                <path d="M0.588,0.596C0.499,0.609 0.398,0.625 0.329,0.585C0.328,0.585 0.327,0.584 0.327,0.584C0.233,0.528 0.188,0.415 0.216,0.31C0.232,0.253 0.264,0.203 0.308,0.166L0.31,0.165C0.371,0.113 0.397,0.038 0.322,0.012C0.299,0.005 0.151,-0.019 0.023,0.161C0.277,-0.279 0.117,-0.619 0.154,-0.598L0.888,-0.252C0.894,-0.247 0.899,-0.243 0.904,-0.239C1.05,-0.115 1.089,0.095 1.007,0.267L0.987,0.309C0.981,0.322 0.974,0.336 0.967,0.348C0.885,0.489 0.753,0.571 0.588,0.596Z" style="fill:url(#_Linear7);fill-rule:nonzero;"/>
            </g>
        </g>
        <g transform="matrix(4.16667,0,0,4.16667,0,0)">
            <g transform="matrix(10.532,20.1758,20.1758,-10.532,139.977,169.185)">
                <path d="M-0.368,0.654C-0.37,0.51 -0.35,0.407 -0.345,0.444L-0.344,0.451C-0.317,0.657 -0.187,0.822 -0.025,0.69C0.025,0.649 0.284,0.356 0.066,-0.179C-0.255,-0.967 0.359,0.18 0.432,-0.255C0.778,0.407 0.309,1.36 -0.1,1.239C-0.183,1.214 -0.242,1.153 -0.283,1.075C-0.347,0.952 -0.367,0.786 -0.368,0.654Z" style="fill:url(#_Linear8);fill-rule:nonzero;"/>
            </g>
        </g>
        <g transform="matrix(4.16667,0,0,4.16667,0,0)">
            <g transform="matrix(55.2134,26.8243,26.8243,-55.2134,106.386,152.066)">
                <path d="M0.686,-0.183C0.872,-0.093 0.957,0.145 0.929,0.283C0.914,0.36 0.762,0.329 0.759,0.199C0.758,0.176 0.777,0.032 0.594,-0.08C0.325,-0.244 -0.029,-0.105 -0.124,0.203C-0.027,-0.226 0.409,-0.318 0.686,-0.183Z" style="fill:url(#_Linear9);fill-rule:nonzero;"/>
            </g>
        </g>
        <g transform="matrix(4.16667,0,0,4.16667,0,0)">
            <g transform="matrix(-7.5015,34.8266,34.8266,7.5015,141.93,146.237)">
                <path d="M-0.866,0.167C-0.749,-0.301 0,-0.827 0.302,-0.259C0.449,0.017 0.205,0.192 -0.038,0.363C-0.333,0.571 -0.627,0.773 -0.217,1.148C-0.265,1.138 -0.39,1.128 -0.418,1.122C-0.421,1.121 -0.424,1.118 -0.427,1.116C-0.571,1.022 -1.012,0.838 -0.877,0.211C-0.874,0.196 -0.87,0.182 -0.866,0.167Z" style="fill:url(#_Linear10);fill-rule:nonzero;"/>
            </g>
        </g>
        <g transform="matrix(4.16667,0,0,4.16667,0,0)">
            <g transform="matrix(6.73805,55.0543,55.0543,-6.73805,153.495,114.291)">
                <path d="M0.525,-0.469C0.676,-0.352 0.573,-0.209 0.471,-0.057C0.352,0.121 0.234,0.311 0.525,0.491C0.294,0.485 0.101,0.314 0.067,0.036C0.033,-0.242 0.304,-0.642 0.525,-0.469Z" style="fill:url(#_Linear11);fill-rule:nonzero;"/>
            </g>
        </g>
        <g transform="matrix(4.16667,0,0,4.16667,0,0)">
            <g transform="matrix(-21.4602,24.8311,24.8311,21.4602,73.3125,159.824)">
                <path d="M0.051,-0.586C0.095,-0.578 0.135,-0.558 0.169,-0.529L0.599,-0.161C0.63,-0.135 0.653,-0.101 0.669,-0.064C0.669,-0.064 0.453,0.118 -0.044,0.335C-0.54,0.551 -0.77,0.598 -0.77,0.598C-0.393,0.253 -0.237,-0.041 -0.154,-0.25C-0.093,-0.405 -0.072,-0.514 -0.031,-0.561C-0.011,-0.584 0.014,-0.593 0.051,-0.586Z" style="fill:url(#_Linear12);fill-rule:nonzero;"/>
            </g>
        </g>
        <g transform="matrix(4.16667,0,0,4.16667,0,0)">
            <g transform="matrix(44.1076,-19.1967,-19.1967,-44.1076,126.881,198.698)">
                <path d="M0.542,0.204C0.397,0.216 0.281,0.3 0.281,0.3L0.023,0.08L0.978,-0.288C1.001,-0.298 1.027,-0.298 1.049,-0.289C1.021,-0.217 0.809,0.239 0.809,0.239C0.809,0.239 0.681,0.192 0.542,0.204Z" style="fill:url(#_Linear13);fill-rule:nonzero;"/>
            </g>
        </g>
        <g transform="matrix(4.16667,0,0,4.16667,0,0)">
            <g transform="matrix(103.3,52.8208,52.8208,-103.3,69.2948,104.002)">
                <path d="M0.381,0.344C0.237,0.263 0.172,0.085 0.172,0.085C0.103,-0.128 0.088,-0.325 0.085,-0.387C0.085,-0.399 0.329,-0.209 0.31,0.006C0.281,0.336 0.472,0.386 0.584,0.411C0.527,0.407 0.469,0.39 0.406,0.358C0.398,0.353 0.389,0.349 0.381,0.344Z" style="fill:url(#_Linear14);fill-rule:nonzero;"/>
            </g>
        </g>
    </g>
    <defs>
        <linearGradient id="_Linear1" x1="0" y1="0" x2="1" y2="0" gradientUnits="userSpaceOnUse" gradientTransform="matrix(1,-5.55112e-17,-5.55112e-17,-1,0,-0.00627677)"><stop offset="0" style="stop-color:white;stop-opacity:1"/><stop offset="1" style="stop-color:rgb(211,210,210);stop-opacity:1"/></linearGradient>
        <linearGradient id="_Linear2" x1="0" y1="0" x2="1" y2="0" gradientUnits="userSpaceOnUse" gradientTransform="matrix(1,5.55112e-17,5.55112e-17,-1,0,-0.0256975)"><stop offset="0" style="stop-color:rgb(177,31,35);stop-opacity:1"/><stop offset="0.22" style="stop-color:rgb(177,31,35);stop-opacity:1"/><stop offset="1" style="stop-color:rgb(225,36,39);stop-opacity:1"/></linearGradient>
        <linearGradient id="_Linear3" x1="0" y1="0" x2="1" y2="0" gradientUnits="userSpaceOnUse" gradientTransform="matrix(1,-5.55112e-17,-5.55112e-17,-1,0,6.61062e-06)"><stop offset="0" style="stop-color:rgb(225,36,39);stop-opacity:1"/><stop offset="0.29" style="stop-color:rgb(225,36,39);stop-opacity:1"/><stop offset="0.81" style="stop-color:rgb(75,8,7);stop-opacity:1"/><stop offset="1" style="stop-color:rgb(75,8,7);stop-opacity:1"/></linearGradient>
        <linearGradient id="_Linear4" x1="0" y1="0" x2="1" y2="0" gradientUnits="userSpaceOnUse" gradientTransform="matrix(1,5.55112e-17,5.55112e-17,-1,0,-0.0701608)"><stop offset="0" style="stop-color:rgb(225,36,39);stop-opacity:1"/><stop offset="0.22" style="stop-color:rgb(225,36,39);stop-opacity:1"/><stop offset="0.87" style="stop-color:rgb(75,8,7);stop-opacity:1"/><stop offset="1" style="stop-color:rgb(75,8,7);stop-opacity:1"/></linearGradient>
        <linearGradient id="_Linear5" x1="0" y1="0" x2="1" y2="0" gradientUnits="userSpaceOnUse" gradientTransform="matrix(1,0,0,-1,0,-0.0350179)"><stop offset="0" style="stop-color:rgb(225,36,39);stop-opacity:1"/><stop offset="0.23" style="stop-color:rgb(225,36,39);stop-opacity:1"/><stop offset="0.87" style="stop-color:rgb(75,8,7);stop-opacity:1"/><stop offset="1" style="stop-color:rgb(75,8,7);stop-opacity:1"/></linearGradient>
        <linearGradient id="_Linear6" x1="0" y1="0" x2="1" y2="0" gradientUnits="userSpaceOnUse" gradientTransform="matrix(1,0,0,-1,0,-0.00464296)"><stop offset="0" style="stop-color:rgb(177,31,35);stop-opacity:1"/><stop offset="0.22" style="stop-color:rgb(177,31,35);stop-opacity:1"/><stop offset="1" style="stop-color:rgb(225,36,39);stop-opacity:1"/></linearGradient>
        <linearGradient id="_Linear7" x1="0" y1="0" x2="1" y2="0" gradientUnits="userSpaceOnUse" gradientTransform="matrix(1,0,0,-1,0,0.00577412)"><stop offset="0" style="stop-color:rgb(225,36,41);stop-opacity:1"/><stop offset="1" style="stop-color:rgb(106,18,21);stop-opacity:1"/></linearGradient>
        <linearGradient id="_Linear8" x1="0" y1="0" x2="1" y2="0" gradientUnits="userSpaceOnUse" gradientTransform="matrix(1,-5.55112e-17,-5.55112e-17,-1,0,0.393118)"><stop offset="0" style="stop-color:rgb(72,0,0);stop-opacity:1"/><stop offset="0.22" style="stop-color:rgb(72,0,0);stop-opacity:1"/><stop offset="0.57" style="stop-color:rgb(158,19,20);stop-opacity:1"/><stop offset="1" style="stop-color:rgb(158,19,20);stop-opacity:1"/></linearGradient>
        <linearGradient id="_Linear9" x1="0" y1="0" x2="1" y2="0" gradientUnits="userSpaceOnUse" gradientTransform="matrix(1,0,0,-1,0,0.0420353)"><stop offset="0" style="stop-color:rgb(225,36,39);stop-opacity:1"/><stop offset="0.57" style="stop-color:rgb(225,36,39);stop-opacity:1"/><stop offset="1" style="stop-color:rgb(75,8,7);stop-opacity:1"/></linearGradient>
        <linearGradient id="_Linear10" x1="0" y1="0" x2="1" y2="0" gradientUnits="userSpaceOnUse" gradientTransform="matrix(1,0,0,-1,0,0.320658)"><stop offset="0" style="stop-color:rgb(177,31,35);stop-opacity:1"/><stop offset="0.65" style="stop-color:rgb(225,36,39);stop-opacity:1"/><stop offset="1" style="stop-color:rgb(225,36,39);stop-opacity:1"/></linearGradient>
        <linearGradient id="_Linear11" x1="0" y1="0" x2="1" y2="0" gradientUnits="userSpaceOnUse" gradientTransform="matrix(-0.991681,0.128717,0.128717,0.991681,0.76968,-0.0497425)"><stop offset="0" style="stop-color:rgb(225,36,39);stop-opacity:1"/><stop offset="0.36" style="stop-color:rgb(225,36,39);stop-opacity:1"/><stop offset="0.67" style="stop-color:rgb(177,31,35);stop-opacity:1"/><stop offset="1" style="stop-color:rgb(177,31,35);stop-opacity:1"/></linearGradient>
        <linearGradient id="_Linear12" x1="0" y1="0" x2="1" y2="0" gradientUnits="userSpaceOnUse" gradientTransform="matrix(1,0,0,-1,0,0.00468222)"><stop offset="0" style="stop-color:rgb(226,31,38);stop-opacity:1"/><stop offset="0.72" style="stop-color:rgb(75,8,7);stop-opacity:1"/><stop offset="1" style="stop-color:rgb(75,8,7);stop-opacity:1"/></linearGradient>
        <linearGradient id="_Linear13" x1="0" y1="0" x2="1" y2="0" gradientUnits="userSpaceOnUse" gradientTransform="matrix(1,-5.55112e-17,-5.55112e-17,-1,0,0.00236823)"><stop offset="0" style="stop-color:rgb(199,36,40);stop-opacity:1"/><stop offset="0.26" style="stop-color:rgb(199,36,40);stop-opacity:1"/><stop offset="0.72" style="stop-color:rgb(148,29,33);stop-opacity:1"/><stop offset="1" style="stop-color:rgb(148,29,33);stop-opacity:1"/></linearGradient>
        <linearGradient id="_Linear14" x1="0" y1="0" x2="1" y2="0" gradientUnits="userSpaceOnUse" gradientTransform="matrix(1,0,0,-1,0,0.0119959)"><stop offset="0" style="stop-color:rgb(225,36,39);stop-opacity:1"/><stop offset="0.23" style="stop-color:rgb(225,36,39);stop-opacity:1"/><stop offset="0.87" style="stop-color:rgb(75,8,7);stop-opacity:1"/><stop offset="1" style="stop-color:rgb(75,8,7);stop-opacity:1"/></linearGradient>
    </defs>
</svg>
