<?xml version="1.0" encoding="UTF-8" standalone="no"?>
<!DOCTYPE svg PUBLIC "-//W3C//DTD SVG 1.1//EN" "http://www.w3.org/Graphics/SVG/1.1/DTD/svg11.dtd">
<svg width="100%" height="100%" viewBox="0 0 950 188" version="1.1" xmlns="http://www.w3.org/2000/svg" xmlns:xlink="http://www.w3.org/1999/xlink" xml:space="preserve" xmlns:serif="http://www.serif.com/" style="fill-rule:evenodd;clip-rule:evenodd;stroke-linejoin:round;stroke-miterlimit:1.41421;">
    <g transform="matrix(1,0,0,1,-713.905,-974.442)">
        <g>
            <g transform="matrix(0.298995,0,0,0.298995,475.449,620.23)">
                <path d="M1556.17,1375.53L1113.31,1375.53L1082.52,1410.96L1197.19,1526.66L1234.41,1489.41L1210.02,1488.61L1144.14,1420.84L1593.07,1420.84L1197,1812.99L797.523,1420.93L1005.14,1184.67L1388.33,1184.67L1556.17,1375.53ZM1396.2,1308.07L1347.26,1253.4L1044.06,1253.4L899.74,1417.94L1195.74,1709.27L1417.39,1489.62L1335.74,1489.62L1196.71,1630.44L979.395,1414.66L1074.7,1308.07L1396.2,1308.07Z" style="fill:url(#_Linear1);"/>
                <clipPath id="_clip2">
                    <path d="M1556.17,1375.53L1113.31,1375.53L1082.52,1410.96L1197.19,1526.66L1234.41,1489.41L1210.02,1488.61L1144.14,1420.84L1593.07,1420.84L1197,1812.99L797.523,1420.93L1005.14,1184.67L1388.33,1184.67L1556.17,1375.53ZM1396.2,1308.07L1347.26,1253.4L1044.06,1253.4L899.74,1417.94L1195.74,1709.27L1417.39,1489.62L1335.74,1489.62L1196.71,1630.44L979.395,1414.66L1074.7,1308.07L1396.2,1308.07Z"/>
                </clipPath>
                <g clip-path="url(#_clip2)">
                    <g transform="matrix(2.53087,0,0,2.53087,-3962.31,-1644.75)">
                        <rect x="2015.56" y="1200.65" width="222.253" height="190.771" style="fill:url(#_Linear3);"/>
                    </g>
                    <g transform="matrix(2.53087,0,0,2.53087,-3962.31,-1644.75)">
                        <path d="M1991.49,1352.89L2018.36,1401.85L2104.33,1246.75L2037.5,1304.01L1940.23,1206.24L1982.83,1154.71L1864.44,1206.78L1991.49,1352.89Z" style="fill:url(#_Linear4);"/>
                    </g>
                    <g transform="matrix(2.53087,0,0,2.53087,-3962.31,-1644.75)">
                        <path d="M2006.41,1210.69L1936.86,1209.91L1991.32,1152.69L2118.26,1166.82L2007.56,1192.82L2006.41,1210.69Z" style="fill:url(#_Linear5);"/>
                    </g>
                    <g transform="matrix(2.53087,0,0,2.53087,-3962.31,-1644.75)">
                        <path d="M2032.73,1303.97L2087.42,1200.89L2005.27,1207.9L1939.23,1208.75L2032.73,1303.97Z" style="fill:url(#_Linear6);"/>
                    </g>
                </g>
            </g>
            <g transform="matrix(2.12758,0,0,2.12758,-1297.48,-651.495)">
                <g transform="matrix(1,0,0,1,0,-1.20248)">
                    <path d="M1089.77,811.52L1094.62,811.52L1094.62,827.72C1094.22,827.854 1093.64,828.004 1092.89,828.17C1092.14,828.337 1091.28,828.504 1090.29,828.67C1089.31,828.837 1088.24,828.979 1087.07,829.095C1085.9,829.212 1084.72,829.27 1083.52,829.27C1081.09,829.27 1078.87,828.87 1076.87,828.07C1074.87,827.27 1073.15,826.104 1071.72,824.57C1070.29,823.037 1069.18,821.154 1068.39,818.92C1067.61,816.687 1067.22,814.12 1067.22,811.22C1067.22,808.32 1067.66,805.745 1068.54,803.495C1069.43,801.245 1070.62,799.354 1072.12,797.82C1073.62,796.287 1075.38,795.12 1077.39,794.32C1079.41,793.52 1081.57,793.12 1083.87,793.12C1085.43,793.12 1086.83,793.22 1088.04,793.42C1089.26,793.62 1090.3,793.854 1091.17,794.12C1092.04,794.387 1092.74,794.654 1093.29,794.92C1093.84,795.187 1094.22,795.387 1094.42,795.52L1092.87,799.57C1091.9,798.937 1090.62,798.412 1089.02,797.995C1087.42,797.579 1085.79,797.37 1084.12,797.37C1082.35,797.37 1080.74,797.687 1079.29,798.32C1077.84,798.954 1076.61,799.87 1075.59,801.07C1074.58,802.27 1073.79,803.729 1073.22,805.445C1072.65,807.162 1072.37,809.087 1072.37,811.22C1072.37,813.287 1072.61,815.17 1073.09,816.87C1073.58,818.57 1074.31,820.029 1075.29,821.245C1076.28,822.462 1077.49,823.404 1078.94,824.07C1080.39,824.737 1082.1,825.07 1084.07,825.07C1085.47,825.07 1086.66,824.995 1087.64,824.845C1088.63,824.695 1089.34,824.554 1089.77,824.42L1089.77,811.52Z" style="fill:rgb(102,102,102);fill-rule:nonzero;"/>
                </g>
                <g transform="matrix(1,0,0,1,0,-1.15248)">
                    <path d="M1124.87,815.57C1124.87,817.637 1124.57,819.504 1123.97,821.17C1123.37,822.837 1122.53,824.27 1121.44,825.47C1120.36,826.67 1119.07,827.595 1117.57,828.245C1116.07,828.895 1114.43,829.22 1112.67,829.22C1110.9,829.22 1109.27,828.895 1107.77,828.245C1106.27,827.595 1104.98,826.67 1103.89,825.47C1102.81,824.27 1101.97,822.837 1101.37,821.17C1100.77,819.504 1100.47,817.637 1100.47,815.57C1100.47,813.537 1100.77,811.679 1101.37,809.995C1101.97,808.312 1102.81,806.87 1103.89,805.67C1104.98,804.47 1106.27,803.545 1107.77,802.895C1109.27,802.245 1110.9,801.92 1112.67,801.92C1114.43,801.92 1116.07,802.245 1117.57,802.895C1119.07,803.545 1120.36,804.47 1121.44,805.67C1122.53,806.87 1123.37,808.312 1123.97,809.995C1124.57,811.679 1124.87,813.537 1124.87,815.57ZM1120.02,815.57C1120.02,812.637 1119.36,810.312 1118.04,808.595C1116.73,806.879 1114.93,806.02 1112.67,806.02C1110.4,806.02 1108.61,806.879 1107.29,808.595C1105.98,810.312 1105.32,812.637 1105.32,815.57C1105.32,818.504 1105.98,820.829 1107.29,822.545C1108.61,824.262 1110.4,825.12 1112.67,825.12C1114.93,825.12 1116.73,824.262 1118.04,822.545C1119.36,820.829 1120.02,818.504 1120.02,815.57Z" style="fill:rgb(102,102,102);fill-rule:nonzero;"/>
                </g>
                <g transform="matrix(1,0,0,1,0,-0.502477)">
                    <path d="M1131.42,803.32C1132.49,803.054 1133.9,802.77 1135.67,802.47C1137.43,802.17 1139.47,802.02 1141.77,802.02C1143.84,802.02 1145.55,802.312 1146.92,802.895C1148.29,803.479 1149.38,804.295 1150.19,805.345C1151.01,806.395 1151.59,807.654 1151.92,809.12C1152.25,810.587 1152.42,812.204 1152.42,813.97L1152.42,828.57L1147.77,828.57L1147.77,814.97C1147.77,813.37 1147.66,812.004 1147.44,810.87C1147.23,809.737 1146.87,808.82 1146.37,808.12C1145.87,807.42 1145.2,806.912 1144.37,806.595C1143.54,806.279 1142.5,806.12 1141.27,806.12C1140.77,806.12 1140.25,806.137 1139.72,806.17C1139.18,806.204 1138.68,806.245 1138.19,806.295C1137.71,806.345 1137.28,806.404 1136.89,806.47C1136.51,806.537 1136.24,806.587 1136.07,806.62L1136.07,828.57L1131.42,828.57L1131.42,803.32Z" style="fill:rgb(102,102,102);fill-rule:nonzero;"/>
                </g>
                <g transform="matrix(1,0,0,1,0,-0.502477)">
                    <path d="M1177.37,806.07C1176.67,806.837 1175.74,807.92 1174.59,809.32C1173.44,810.72 1172.21,812.27 1170.89,813.97C1169.58,815.67 1168.26,817.454 1166.94,819.32C1165.63,821.187 1164.47,822.97 1163.47,824.67L1177.77,824.67L1177.77,828.57L1157.92,828.57L1157.92,825.47C1158.72,824.004 1159.7,822.387 1160.87,820.62C1162.04,818.854 1163.26,817.095 1164.54,815.345C1165.83,813.595 1167.08,811.945 1168.29,810.395C1169.51,808.845 1170.57,807.537 1171.47,806.47L1158.62,806.47L1158.62,802.57L1177.37,802.57L1177.37,806.07Z" style="fill:rgb(102,102,102);fill-rule:nonzero;"/>
                </g>
                <g transform="matrix(1,0,0,1,0,-1.05248)">
                    <path d="M1192.47,825.22C1193.57,825.22 1194.54,825.195 1195.39,825.145C1196.24,825.095 1196.95,825.004 1197.52,824.87L1197.52,817.12C1197.18,816.954 1196.64,816.812 1195.89,816.695C1195.14,816.579 1194.24,816.52 1193.17,816.52C1192.47,816.52 1191.73,816.57 1190.94,816.67C1190.16,816.77 1189.44,816.979 1188.79,817.295C1188.14,817.612 1187.6,818.045 1187.17,818.595C1186.74,819.145 1186.52,819.87 1186.52,820.77C1186.52,822.437 1187.05,823.595 1188.12,824.245C1189.18,824.895 1190.63,825.22 1192.47,825.22ZM1192.07,801.92C1193.93,801.92 1195.51,802.162 1196.79,802.645C1198.08,803.129 1199.11,803.812 1199.89,804.695C1200.68,805.579 1201.24,806.629 1201.57,807.845C1201.9,809.062 1202.07,810.404 1202.07,811.87L1202.07,828.12C1201.67,828.187 1201.11,828.279 1200.39,828.395C1199.68,828.512 1198.87,828.62 1197.97,828.72C1197.07,828.82 1196.09,828.912 1195.04,828.995C1193.99,829.079 1192.95,829.12 1191.92,829.12C1190.45,829.12 1189.1,828.97 1187.87,828.67C1186.63,828.37 1185.57,827.895 1184.67,827.245C1183.77,826.595 1183.07,825.737 1182.57,824.67C1182.07,823.604 1181.82,822.32 1181.82,820.82C1181.82,819.387 1182.11,818.154 1182.69,817.12C1183.28,816.087 1184.07,815.254 1185.07,814.62C1186.07,813.987 1187.24,813.52 1188.57,813.22C1189.9,812.92 1191.3,812.77 1192.77,812.77C1193.24,812.77 1193.72,812.795 1194.22,812.845C1194.72,812.895 1195.19,812.962 1195.64,813.045C1196.09,813.129 1196.49,813.204 1196.82,813.27C1197.15,813.337 1197.38,813.387 1197.52,813.42L1197.52,812.12C1197.52,811.354 1197.43,810.595 1197.27,809.845C1197.1,809.095 1196.8,808.429 1196.37,807.845C1195.93,807.262 1195.34,806.795 1194.59,806.445C1193.84,806.095 1192.87,805.92 1191.67,805.92C1190.13,805.92 1188.79,806.029 1187.64,806.245C1186.49,806.462 1185.63,806.687 1185.07,806.92L1184.52,803.07C1185.12,802.804 1186.12,802.545 1187.52,802.295C1188.92,802.045 1190.43,801.92 1192.07,801.92Z" style="fill:rgb(102,102,102);fill-rule:nonzero;"/>
                </g>
                <g transform="matrix(1,0,0,1,-5.90006,-0.502477)">
                    <path d="M1238.57,814.07C1239.1,814.737 1239.78,815.612 1240.59,816.695C1241.41,817.779 1242.25,818.979 1243.12,820.295C1243.99,821.612 1244.84,822.987 1245.69,824.42C1246.54,825.854 1247.27,827.237 1247.87,828.57L1242.57,828.57C1241.9,827.304 1241.18,826.02 1240.39,824.72C1239.61,823.42 1238.82,822.179 1238.02,820.995C1237.22,819.812 1236.43,818.704 1235.64,817.67C1234.86,816.637 1234.15,815.737 1233.52,814.97C1233.09,815.004 1232.64,815.02 1232.19,815.02C1231.74,815.02 1231.29,815.02 1230.82,815.02L1226.47,815.02L1226.47,828.57L1221.62,828.57L1221.62,794.42C1222.99,794.087 1224.51,793.862 1226.19,793.745C1227.88,793.629 1229.42,793.57 1230.82,793.57C1235.68,793.57 1239.39,794.487 1241.94,796.32C1244.49,798.154 1245.77,800.887 1245.77,804.52C1245.77,806.82 1245.16,808.787 1243.94,810.42C1242.73,812.054 1240.93,813.27 1238.57,814.07ZM1231.22,797.82C1229.15,797.82 1227.57,797.87 1226.47,797.97L1226.47,811.02L1229.92,811.02C1231.59,811.02 1233.09,810.937 1234.42,810.77C1235.75,810.604 1236.88,810.287 1237.79,809.82C1238.71,809.354 1239.42,808.695 1239.92,807.845C1240.42,806.995 1240.67,805.87 1240.67,804.47C1240.67,803.17 1240.42,802.087 1239.92,801.22C1239.42,800.354 1238.74,799.67 1237.89,799.17C1237.04,798.67 1236.04,798.32 1234.89,798.12C1233.74,797.92 1232.52,797.82 1231.22,797.82Z" style="fill:rgb(102,102,102);fill-rule:nonzero;"/>
                </g>
                <g transform="matrix(1,0,0,1,-5.90006,-1.15248)">
                    <path d="M1275.72,815.57C1275.72,817.637 1275.42,819.504 1274.82,821.17C1274.22,822.837 1273.38,824.27 1272.29,825.47C1271.21,826.67 1269.92,827.595 1268.42,828.245C1266.92,828.895 1265.29,829.22 1263.52,829.22C1261.75,829.22 1260.12,828.895 1258.62,828.245C1257.12,827.595 1255.83,826.67 1254.74,825.47C1253.66,824.27 1252.82,822.837 1252.22,821.17C1251.62,819.504 1251.32,817.637 1251.32,815.57C1251.32,813.537 1251.62,811.679 1252.22,809.995C1252.82,808.312 1253.66,806.87 1254.74,805.67C1255.83,804.47 1257.12,803.545 1258.62,802.895C1260.12,802.245 1261.75,801.92 1263.52,801.92C1265.29,801.92 1266.92,802.245 1268.42,802.895C1269.92,803.545 1271.21,804.47 1272.29,805.67C1273.38,806.87 1274.22,808.312 1274.82,809.995C1275.42,811.679 1275.72,813.537 1275.72,815.57ZM1270.87,815.57C1270.87,812.637 1270.21,810.312 1268.89,808.595C1267.58,806.879 1265.79,806.02 1263.52,806.02C1261.25,806.02 1259.46,806.879 1258.14,808.595C1256.83,810.312 1256.17,812.637 1256.17,815.57C1256.17,818.504 1256.83,820.829 1258.14,822.545C1259.46,824.262 1261.25,825.12 1263.52,825.12C1265.79,825.12 1267.58,824.262 1268.89,822.545C1270.21,820.829 1270.87,818.504 1270.87,815.57Z" style="fill:rgb(102,102,102);fill-rule:nonzero;"/>
                </g>
                <g transform="matrix(1,0,0,1,-5.90006,-1.10248)">
                    <path d="M1286.92,803.72C1287.49,803.354 1288.34,802.97 1289.49,802.57C1290.64,802.17 1291.97,801.97 1293.47,801.97C1295.34,801.97 1296.99,802.304 1298.44,802.97C1299.89,803.637 1301.12,804.57 1302.12,805.77C1303.12,806.97 1303.88,808.404 1304.39,810.07C1304.91,811.737 1305.17,813.57 1305.17,815.57C1305.17,817.67 1304.86,819.562 1304.24,821.245C1303.63,822.929 1302.75,824.354 1301.62,825.52C1300.49,826.687 1299.12,827.587 1297.52,828.22C1295.92,828.854 1294.12,829.17 1292.12,829.17C1289.95,829.17 1288.04,829.02 1286.37,828.72C1284.7,828.42 1283.34,828.12 1282.27,827.82L1282.27,790.57L1286.92,789.77L1286.92,803.72ZM1286.92,824.52C1287.38,824.654 1288.04,824.779 1288.89,824.895C1289.74,825.012 1290.8,825.07 1292.07,825.07C1294.57,825.07 1296.57,824.245 1298.07,822.595C1299.57,820.945 1300.32,818.604 1300.32,815.57C1300.32,814.237 1300.18,812.987 1299.92,811.82C1299.65,810.654 1299.22,809.645 1298.62,808.795C1298.02,807.945 1297.24,807.279 1296.29,806.795C1295.34,806.312 1294.2,806.07 1292.87,806.07C1291.6,806.07 1290.43,806.287 1289.37,806.72C1288.3,807.154 1287.49,807.604 1286.92,808.07L1286.92,824.52Z" style="fill:rgb(102,102,102);fill-rule:nonzero;"/>
                </g>
                <g transform="matrix(1,0,0,1,-5.90006,-1.05248)">
                    <path d="M1320.52,825.22C1321.62,825.22 1322.59,825.195 1323.44,825.145C1324.29,825.095 1325,825.004 1325.57,824.87L1325.57,817.12C1325.24,816.954 1324.69,816.812 1323.94,816.695C1323.19,816.579 1322.29,816.52 1321.22,816.52C1320.52,816.52 1319.78,816.57 1318.99,816.67C1318.21,816.77 1317.49,816.979 1316.84,817.295C1316.19,817.612 1315.65,818.045 1315.22,818.595C1314.79,819.145 1314.57,819.87 1314.57,820.77C1314.57,822.437 1315.1,823.595 1316.17,824.245C1317.24,824.895 1318.68,825.22 1320.52,825.22ZM1320.12,801.92C1321.99,801.92 1323.56,802.162 1324.84,802.645C1326.13,803.129 1327.16,803.812 1327.94,804.695C1328.73,805.579 1329.29,806.629 1329.62,807.845C1329.95,809.062 1330.12,810.404 1330.12,811.87L1330.12,828.12C1329.72,828.187 1329.16,828.279 1328.44,828.395C1327.73,828.512 1326.92,828.62 1326.02,828.72C1325.12,828.82 1324.14,828.912 1323.09,828.995C1322.04,829.079 1321,829.12 1319.97,829.12C1318.5,829.12 1317.15,828.97 1315.92,828.67C1314.68,828.37 1313.62,827.895 1312.72,827.245C1311.82,826.595 1311.12,825.737 1310.62,824.67C1310.12,823.604 1309.87,822.32 1309.87,820.82C1309.87,819.387 1310.16,818.154 1310.74,817.12C1311.33,816.087 1312.12,815.254 1313.12,814.62C1314.12,813.987 1315.29,813.52 1316.62,813.22C1317.95,812.92 1319.35,812.77 1320.82,812.77C1321.29,812.77 1321.77,812.795 1322.27,812.845C1322.77,812.895 1323.24,812.962 1323.69,813.045C1324.14,813.129 1324.54,813.204 1324.87,813.27C1325.2,813.337 1325.43,813.387 1325.57,813.42L1325.57,812.12C1325.57,811.354 1325.49,810.595 1325.32,809.845C1325.15,809.095 1324.85,808.429 1324.42,807.845C1323.99,807.262 1323.39,806.795 1322.64,806.445C1321.89,806.095 1320.92,805.92 1319.72,805.92C1318.18,805.92 1316.84,806.029 1315.69,806.245C1314.54,806.462 1313.68,806.687 1313.12,806.92L1312.57,803.07C1313.17,802.804 1314.17,802.545 1315.57,802.295C1316.97,802.045 1318.49,801.92 1320.12,801.92Z" style="fill:rgb(102,102,102);fill-rule:nonzero;"/>
                </g>
                <g transform="matrix(1,0,0,1,-5.90006,-0.502477)">
                    <path d="M1342.47,828.57L1337.82,828.57L1337.82,802.57L1342.47,802.57L1342.47,828.57ZM1340.12,797.87C1339.29,797.87 1338.58,797.595 1337.99,797.045C1337.41,796.495 1337.12,795.754 1337.12,794.82C1337.12,793.887 1337.41,793.145 1337.99,792.595C1338.58,792.045 1339.29,791.77 1340.12,791.77C1340.95,791.77 1341.66,792.045 1342.24,792.595C1342.83,793.145 1343.12,793.887 1343.12,794.82C1343.12,795.754 1342.83,796.495 1342.24,797.045C1341.66,797.595 1340.95,797.87 1340.12,797.87Z" style="fill:rgb(102,102,102);fill-rule:nonzero;"/>
                </g>
                <g transform="matrix(1,0,0,1,-5.90006,-0.502477)">
                    <path d="M1350.47,803.32C1351.54,803.054 1352.95,802.77 1354.72,802.47C1356.49,802.17 1358.52,802.02 1360.82,802.02C1362.88,802.02 1364.6,802.312 1365.97,802.895C1367.34,803.479 1368.43,804.295 1369.24,805.345C1370.06,806.395 1370.63,807.654 1370.97,809.12C1371.3,810.587 1371.47,812.204 1371.47,813.97L1371.47,828.57L1366.82,828.57L1366.82,814.97C1366.82,813.37 1366.71,812.004 1366.49,810.87C1366.28,809.737 1365.92,808.82 1365.42,808.12C1364.92,807.42 1364.25,806.912 1363.42,806.595C1362.59,806.279 1361.55,806.12 1360.32,806.12C1359.82,806.12 1359.3,806.137 1358.77,806.17C1358.24,806.204 1357.73,806.245 1357.24,806.295C1356.76,806.345 1356.33,806.404 1355.94,806.47C1355.56,806.537 1355.29,806.587 1355.12,806.62L1355.12,828.57L1350.47,828.57L1350.47,803.32Z" style="fill:rgb(102,102,102);fill-rule:nonzero;"/>
                </g>
                <g transform="matrix(1,0,0,1,-5.90006,-1.05248)">
                    <path d="M1387.97,825.22C1389.07,825.22 1390.04,825.195 1390.89,825.145C1391.74,825.095 1392.45,825.004 1393.02,824.87L1393.02,817.12C1392.68,816.954 1392.14,816.812 1391.39,816.695C1390.64,816.579 1389.74,816.52 1388.67,816.52C1387.97,816.52 1387.23,816.57 1386.44,816.67C1385.66,816.77 1384.94,816.979 1384.29,817.295C1383.64,817.612 1383.1,818.045 1382.67,818.595C1382.24,819.145 1382.02,819.87 1382.02,820.77C1382.02,822.437 1382.55,823.595 1383.62,824.245C1384.68,824.895 1386.13,825.22 1387.97,825.22ZM1387.57,801.92C1389.43,801.92 1391.01,802.162 1392.29,802.645C1393.58,803.129 1394.61,803.812 1395.39,804.695C1396.18,805.579 1396.74,806.629 1397.07,807.845C1397.4,809.062 1397.57,810.404 1397.57,811.87L1397.57,828.12C1397.17,828.187 1396.61,828.279 1395.89,828.395C1395.18,828.512 1394.37,828.62 1393.47,828.72C1392.57,828.82 1391.59,828.912 1390.54,828.995C1389.49,829.079 1388.45,829.12 1387.42,829.12C1385.95,829.12 1384.6,828.97 1383.37,828.67C1382.13,828.37 1381.07,827.895 1380.17,827.245C1379.27,826.595 1378.57,825.737 1378.07,824.67C1377.57,823.604 1377.32,822.32 1377.32,820.82C1377.32,819.387 1377.61,818.154 1378.19,817.12C1378.78,816.087 1379.57,815.254 1380.57,814.62C1381.57,813.987 1382.74,813.52 1384.07,813.22C1385.4,812.92 1386.8,812.77 1388.27,812.77C1388.74,812.77 1389.22,812.795 1389.72,812.845C1390.22,812.895 1390.69,812.962 1391.14,813.045C1391.59,813.129 1391.99,813.204 1392.32,813.27C1392.65,813.337 1392.88,813.387 1393.02,813.42L1393.02,812.12C1393.02,811.354 1392.93,810.595 1392.77,809.845C1392.6,809.095 1392.3,808.429 1391.87,807.845C1391.43,807.262 1390.84,806.795 1390.09,806.445C1389.34,806.095 1388.37,805.92 1387.17,805.92C1385.63,805.92 1384.29,806.029 1383.14,806.245C1381.99,806.462 1381.13,806.687 1380.57,806.92L1380.02,803.07C1380.62,802.804 1381.62,802.545 1383.02,802.295C1384.42,802.045 1385.93,801.92 1387.57,801.92Z" style="fill:rgb(102,102,102);fill-rule:nonzero;"/>
                </g>
            </g>
        </g>
    </g>
    <defs>
        <linearGradient id="_Linear1" x1="0" y1="0" x2="1" y2="0" gradientUnits="userSpaceOnUse" gradientTransform="matrix(-442.634,-322.084,322.084,-442.634,1464.94,1636.5)"><stop offset="0" style="stop-color:rgb(139,25,106);stop-opacity:1"/><stop offset="1" style="stop-color:rgb(238,35,55);stop-opacity:1"/></linearGradient>
        <linearGradient id="_Linear3" x1="0" y1="0" x2="1" y2="0" gradientUnits="userSpaceOnUse" gradientTransform="matrix(184.772,-53.22,53.22,184.772,1991.01,1273.2)"><stop offset="0" style="stop-color:rgb(38,125,57);stop-opacity:1"/><stop offset="1" style="stop-color:rgb(222,233,21);stop-opacity:1"/></linearGradient>
        <linearGradient id="_Linear4" x1="0" y1="0" x2="1" y2="0" gradientUnits="userSpaceOnUse" gradientTransform="matrix(183.089,2.72217,-2.72217,183.089,1878.38,1213.61)"><stop offset="0" style="stop-color:rgb(239,68,34);stop-opacity:1"/><stop offset="0.5" style="stop-color:rgb(250,199,19);stop-opacity:1"/><stop offset="1" style="stop-color:rgb(194,212,36);stop-opacity:1"/></linearGradient>
        <linearGradient id="_Linear5" x1="0" y1="0" x2="1" y2="0" gradientUnits="userSpaceOnUse" gradientTransform="matrix(54.5452,-137.825,137.825,54.5452,2019.05,1289.8)"><stop offset="0" style="stop-color:rgb(70,166,189);stop-opacity:1"/><stop offset="0.5" style="stop-color:rgb(61,121,193);stop-opacity:1"/><stop offset="1" style="stop-color:rgb(162,72,169);stop-opacity:1"/></linearGradient>
        <linearGradient id="_Linear6" x1="0" y1="0" x2="1" y2="0" gradientUnits="userSpaceOnUse" gradientTransform="matrix(148.187,0,0,103.079,1939.23,1252.43)"><stop offset="0" style="stop-color:rgb(51,69,162);stop-opacity:1"/><stop offset="0.5" style="stop-color:rgb(64,136,202);stop-opacity:1"/><stop offset="1" style="stop-color:rgb(71,167,189);stop-opacity:1"/></linearGradient>
    </defs>
</svg>
