<?xml version="1.0" encoding="utf-8"?>
<!-- Generator: Adobe Illustrator 25.4.1, SVG Export Plug-In . SVG Version: 6.00 Build 0)  -->
<svg version="1.1" id="Layer_1" xmlns="http://www.w3.org/2000/svg" xmlns:xlink="http://www.w3.org/1999/xlink" x="0px" y="0px"
	 viewBox="0 0 1382 382.4" style="enable-background:new 0 0 1382 382.4;" xml:space="preserve">
<style type="text/css">
	.st0{fill:url(#SVGID_1_);}
	.st1{fill:url(#SVGID_00000005252397652290643110000013146683613793444501_);}
	.st2{fill:url(#SVGID_00000113345452875432969210000001456636344248030606_);}
	.st3{fill:url(#SVGID_00000077310587175949498770000012764225067614615700_);}
	.st4{fill:#212728;}
	.st5{fill:url(#SVGID_00000065048432702873072610000008574768395819486910_);}
	.st6{fill:url(#SVGID_00000012434257916822609020000017173402921988580768_);}
	.st7{fill:url(#SVGID_00000080889949256555171830000012213047379264906169_);}
	.st8{fill:url(#SVGID_00000065772123066623535760000006851937163100020669_);}
	.st9{fill:url(#SVGID_00000018947181881249203030000010476034229780261808_);}
	.st10{fill:url(#SVGID_00000170965773310914155210000011393959295889365655_);}
	.st11{fill:url(#SVGID_00000106140957684948520140000005089173040399143318_);}
	.st12{fill:url(#SVGID_00000080170823466341614670000017914780733910785417_);}
	.st13{fill:#FFFFFF;}
	.st14{fill:url(#SVGID_00000052812132853227766420000013398184778314176429_);}
	.st15{fill:url(#SVGID_00000016061559766061546840000000286135872634005426_);}
	.st16{fill:url(#SVGID_00000029753897323771480430000005216859542501739453_);}
	.st17{fill:url(#SVGID_00000172415911478400603370000016696350554336364983_);}
	.st18{fill:url(#SVGID_00000009549195986812223120000015626715749189125539_);}
	.st19{fill:url(#SVGID_00000152975798638796525590000009488734097542647442_);}
	.st20{fill:url(#SVGID_00000152260382497988352760000006874178267422388394_);}
	.st21{fill:url(#SVGID_00000034780778313156304670000017037204266584365705_);}
	.st22{fill:url(#SVGID_00000015348791367646685030000003436853194983643554_);}
	.st23{fill:url(#SVGID_00000164473307541132378750000001743531237952767620_);}
	.st24{fill:url(#SVGID_00000083772318160691864740000007281982386495600053_);}
	.st25{fill:url(#SVGID_00000018956723327381681200000014933173168023689345_);}
</style>
<g>
	<path class="st13" d="M549,312.1c-16.3,0-31.4-3-45.2-8.9c-13.9-5.9-26-14.2-36.4-24.8c-10.4-10.6-18.5-23-24.4-37.3
		c-5.9-14.3-8.9-29.8-8.9-46.7c0-16.9,2.8-32.5,8.4-46.9c5.6-14.4,13.6-26.8,24-37.3c10.4-10.5,22.5-18.6,36.2-24.4
		c13.7-5.8,28.8-8.7,45.1-8.7c16.3,0,31,2.8,44,8.3c13,5.5,24,12.8,33,21.8c9,9.1,15.4,19,19.3,29.8l-37,17.7
		c-4.5-11.8-11.8-21.4-22-28.7c-10.2-7.3-22.6-11-37.3-11c-14.1,0-26.5,3.4-37.4,10.1c-10.9,6.7-19.4,16-25.4,28
		c-6,11.9-9,25.7-9,41.4c0,15.9,3.1,29.8,9.3,41.7c6.2,11.9,14.9,21.2,26,28c11.1,6.7,23.7,10.1,37.7,10.1c11.4,0,22-2.3,31.9-6.9
		c9.9-4.6,17.7-11.1,23.5-19.6c5.8-8.5,8.7-18.5,8.7-30.1V200l19.3,16.8h-84.6v-35.1H655v22.9c0,17.7-3,33.3-8.9,46.6
		c-5.9,13.3-13.9,24.6-24,33.8c-10.1,9.2-21.4,16-34.1,20.5C575.5,309.9,562.4,312.1,549,312.1z"/>
	<path class="st13" d="M765.6,312.1c-16.1,0-30.8-3.8-44.1-11.3c-13.3-7.5-24-17.9-31.9-31c-7.9-13.1-11.9-28.1-11.9-44.8
		c0-16.7,3.9-31.6,11.8-44.6c7.8-13,18.4-23.3,31.8-30.7c13.3-7.4,28.2-11.2,44.5-11.2c16.5,0,31.4,3.7,44.6,11.2
		c13.2,7.4,23.8,17.7,31.6,30.7c7.8,13,11.8,27.9,11.8,44.6c0,16.7-4,31.6-11.9,44.8c-7.9,13.1-18.5,23.5-31.8,31
		C796.7,308.4,781.9,312.1,765.6,312.1z M765.6,275.5c9,0,16.9-2.1,23.7-6.4c6.8-4.3,12.3-10.2,16.3-17.7c4.1-7.5,6.1-16.2,6.1-26
		c0-9.6-2-18.1-6-25.5c-4-7.4-9.4-13.3-16.3-17.7c-6.9-4.4-14.9-6.6-23.8-6.6c-9,0-16.9,2.2-23.8,6.6c-6.9,4.4-12.4,10.2-16.3,17.6
		c-4,7.3-6,15.8-6,25.4c0,9.8,1.9,18.5,5.8,26.1c3.9,7.6,9.3,13.6,16.3,17.9C748.7,273.3,756.7,275.5,765.6,275.5z"/>
	<path class="st13" d="M883.6,308.5V142.2h38.2v33l-3.1-6.1c3.9-10.2,10.2-17.8,18.9-22.9c8.8-5.1,19-7.6,30.9-7.6
		c12.4,0,23.3,2.7,32.7,7.9c9.4,5.3,16.7,12.6,22.2,22c5.4,9.4,8.1,20.3,8.1,32.7v107.3h-40.3V211c0-7.3-1.4-13.6-4.3-18.9
		c-2.9-5.3-6.8-9.4-11.8-12.2c-5-2.9-10.7-4.3-17.3-4.3c-6.7,0-12.6,1.4-17.7,4.3c-5.1,2.9-9.1,7-11.9,12.4
		c-2.9,5.4-4.3,11.7-4.3,18.8v97.5H883.6z"/>
	<path class="st13" d="M1050.4,308.5v-32.7l96.9-111.2l5.8,13.4H1055v-35.7h134.1v32.7l-94.7,111.8l-6.4-14.1h101.4v35.7H1050.4z"/>
	<path class="st13" d="M1262.4,312.1c-11.6,0-21.7-2-30.4-6c-8.7-4-15.3-9.5-20-16.6c-4.7-7.1-7-15.6-7-25.4c0-9,2.1-17.1,6.3-24.3
		c4.2-7.2,10.5-13.3,19.1-18.2c8.6-4.9,19.2-8.4,32.1-10.4l54.7-8.9V233l-46.8,8.3c-7.9,1.2-13.9,3.7-17.7,7.3
		c-3.9,3.7-5.8,8.5-5.8,14.4c0,5.5,2.2,10,6.6,13.4c4.4,3.5,9.8,5.2,16.3,5.2c8.3,0,15.7-1.8,22.2-5.5c6.4-3.7,11.4-8.6,15-14.8
		c3.6-6.2,5.3-13,5.3-20.3v-43.1c0-7.1-2.8-13-8.4-17.7c-5.6-4.7-13.1-7-22.5-7c-8.3,0-15.8,2.3-22.3,6.9
		c-6.5,4.6-11.4,10.5-14.7,17.9l-32.7-15.9c3.3-8.8,8.4-16.4,15.4-22.8c7-6.4,15.3-11.5,24.9-15.1c9.6-3.7,20-5.5,31.2-5.5
		c13.6,0,25.7,2.5,36.1,7.5c10.4,5,18.5,12,24.3,20.9c5.8,9,8.7,19.3,8.7,30.9v110.6h-37.9V280l8.6-0.3c-4.5,6.9-9.7,12.8-15.6,17.7
		c-5.9,4.9-12.6,8.6-20,11C1279.9,310.9,1271.6,312.1,1262.4,312.1z"/>
</g>
<g>
	<linearGradient id="SVGID_1_" gradientUnits="userSpaceOnUse" x1="142.6289" y1="226.165" x2="146.3776" y2="226.165">
		<stop  offset="0" style="stop-color:#FFFFFF"/>
		<stop  offset="1" style="stop-color:#D2BABB"/>
	</linearGradient>
	<path class="st0" d="M142.6,221.5c1.2,3.2,2.5,6.3,3.7,9.4C144.9,227.8,143.6,224.7,142.6,221.5z"/>
	
		<linearGradient id="SVGID_00000034778073766326320800000011383378217924737436_" gradientUnits="userSpaceOnUse" x1="223.3177" y1="331.5902" x2="84.0234" y2="52.2945">
		<stop  offset="0" style="stop-color:#FFFFFF"/>
		<stop  offset="1" style="stop-color:#D2BABB"/>
	</linearGradient>
	<path style="fill:url(#SVGID_00000034778073766326320800000011383378217924737436_);" d="M115.2,128.4
		c-31.4,38.9-35,91.4-11.4,133.2l-85.6-96c-10.2-11.3-11.5-28-3.4-40.9L71.2,35c6.3-9.9,17.2-15.9,28.9-15.9h91.1
		C119.9,19.1,105.4,67.7,115.2,128.4z M189.9,321.5L189.9,321.5c-18.4-2.7-36-9.9-51.7-21.3l46.1,51.7c7.8,8.7,18.8,12.4,29.3,11.2
		C211.8,360.2,202.4,344.6,189.9,321.5z"/>
	
		<linearGradient id="SVGID_00000158029951209450751990000011823969618050689159_" gradientUnits="userSpaceOnUse" x1="286.4636" y1="354.7953" x2="311.2113" y2="93.1765">
		<stop  offset="0" style="stop-color:#FFFFFF"/>
		<stop  offset="1" style="stop-color:#D2BABB"/>
	</linearGradient>
	<path style="fill:url(#SVGID_00000158029951209450751990000011823969618050689159_);" d="M401.8,161.4l-89,101.9
		c28.3-43,25.3-96.2-17-138.5l-13.9-13.9l-81.4,81.4l32.5,32.4l43.3-43.3c9.7,21.3,5.1,45-16.4,66.5c-18.9,18.9-40.7,26.2-61.1,23.1
		c-3.7-43-3.1-94.3,10.9-138c3.2,0.1,6.2,0.4,9.1,1.1l12.4-45.6c22.9-32.9,59.8-54.7,117.7-53.9l10.6,16.3l45.2,69.3
		C413,133,411.9,149.8,401.8,161.4z M205.4,322.8c3.9,22.5,7.7,37.7,8.4,40.4c8.1-0.9,15.9-4.8,21.8-11.5l53.5-61.2
		C264.1,312.5,234.4,323.1,205.4,322.8z"/>
	
		<linearGradient id="SVGID_00000088850505292799498670000000741189600271421571_" gradientUnits="userSpaceOnUse" x1="231.6654" y1="23.6453" x2="223.8876" y2="343.9516">
		<stop  offset="0" style="stop-color:#FFFFFF"/>
		<stop  offset="1" style="stop-color:#D2BABB"/>
	</linearGradient>
	<path style="fill:url(#SVGID_00000088850505292799498670000000741189600271421571_);" d="M348.9,34.6c-57.9-0.8-94.8,21-117.7,53.9
		l1.1-4c-35.5-8.1-77,2.8-108.1,33.9c-3.2,3.2-6.3,6.6-9,10.1c-9.7-60.7,4.8-109.4,76.1-109.4h129C331.8,19.1,342.6,24.9,348.9,34.6
		z M209.7,133c-15.8-0.5-34.2,6.4-49.5,21.7c-18.7,18.7-24.8,43.6-17.5,66.7v0.1c1.2,3.2,2.5,6.3,3.7,9.4c0.1,0.2,0.2,0.4,0.3,0.6
		c3.5,6.9,8.4,13.6,14.4,19.7c11,11,24,17.8,37.7,19.9C195.1,228,195.7,176.8,209.7,133z M205.4,322.8c-5.1-0.1-10.4-0.5-15.5-1.2
		c12.5,23.1,21.9,38.6,23.8,41.6h0.1C213.1,360.5,209.3,345.3,205.4,322.8z"/>
</g>
</svg>
