<?xml version="1.0" encoding="utf-8"?>
<!-- Generator: Adobe Illustrator 25.4.1, SVG Export Plug-In . SVG Version: 6.00 Build 0)  -->
<svg version="1.1" id="Layer_1" xmlns="http://www.w3.org/2000/svg" xmlns:xlink="http://www.w3.org/1999/xlink" x="0px" y="0px"
	 viewBox="0 0 430 382.4" style="enable-background:new 0 0 430 382.4;" xml:space="preserve">
<style type="text/css">
	.st0{fill:url(#SVGID_1_);}
	.st1{fill:url(#SVGID_00000014624333466457109390000010480110832864589191_);}
	.st2{fill:url(#SVGID_00000016039341386840577980000013897405057277201085_);}
	.st3{fill:url(#SVGID_00000003090490820479083500000015390854601095278753_);}
	.st4{fill:#212728;}
	.st5{fill:url(#SVGID_00000057137634133292216450000010653799548407455375_);}
	.st6{fill:url(#SVGID_00000062159393615611302120000001050157705906133634_);}
	.st7{fill:url(#SVGID_00000093167005782066924840000006141279521808188345_);}
	.st8{fill:url(#SVGID_00000069387721906710956060000007351993724236253078_);}
	.st9{fill:url(#SVGID_00000080897675195070569700000014887036651124756380_);}
	.st10{fill:url(#SVGID_00000105417017819978261180000004817736845783810978_);}
	.st11{fill:url(#SVGID_00000098913913381850266240000010643651610811535806_);}
	.st12{fill:url(#SVGID_00000088100302151053626170000008950737312170014370_);}
	.st13{fill:#FFFFFF;}
	.st14{fill:url(#SVGID_00000112612176039880267280000008952195475080994206_);}
	.st15{fill:url(#SVGID_00000060729096496568744790000012587268180349134777_);}
	.st16{fill:url(#SVGID_00000107546961243120910420000007622881009957771148_);}
	.st17{fill:url(#SVGID_00000053514051319423149930000015024676157544297611_);}
	.st18{fill:url(#SVGID_00000068646851530382005570000002553014248669789332_);}
	.st19{fill:url(#SVGID_00000102537115452145729920000017061612544935867280_);}
	.st20{fill:url(#SVGID_00000093175802620556527800000017782166172273868477_);}
	.st21{fill:url(#SVGID_00000119075285377018695730000010982492520196254886_);}
	.st22{fill:url(#SVGID_00000067944694723320008340000011916412995946324400_);}
	.st23{fill:url(#SVGID_00000150783859849844941250000013787641341304465311_);}
	.st24{fill:url(#SVGID_00000163039072205640238740000008301304440125131171_);}
	.st25{fill:url(#SVGID_00000165912829775556044780000013738942939830759601_);}
</style>
<g>
	<linearGradient id="SVGID_1_" gradientUnits="userSpaceOnUse" x1="150.9662" y1="226.165" x2="154.715" y2="226.165">
		<stop  offset="0" style="stop-color:#FFFFFF"/>
		<stop  offset="1" style="stop-color:#D2BABB"/>
	</linearGradient>
	<path class="st0" d="M151,221.5c1.2,3.2,2.5,6.3,3.7,9.4C153.2,227.8,152,224.7,151,221.5z"/>
	
		<linearGradient id="SVGID_00000099645272686059427960000006319122407218562479_" gradientUnits="userSpaceOnUse" x1="231.6551" y1="331.5902" x2="92.3607" y2="52.2945">
		<stop  offset="0" style="stop-color:#FFFFFF"/>
		<stop  offset="1" style="stop-color:#D2BABB"/>
	</linearGradient>
	<path style="fill:url(#SVGID_00000099645272686059427960000006319122407218562479_);" d="M123.5,128.4
		c-31.4,38.9-35,91.4-11.4,133.2l-85.6-96c-10.2-11.3-11.5-28-3.4-40.9L79.5,35c6.3-9.9,17.2-15.9,28.9-15.9h91.1
		C128.3,19.1,113.8,67.7,123.5,128.4z M198.3,321.5L198.3,321.5c-18.4-2.7-36-9.9-51.7-21.3l46.1,51.7c7.8,8.7,18.8,12.4,29.3,11.2
		C220.2,360.2,210.7,344.6,198.3,321.5z"/>
	
		<linearGradient id="SVGID_00000055694257396969053970000006392228606025437334_" gradientUnits="userSpaceOnUse" x1="294.8009" y1="354.7953" x2="319.5486" y2="93.1765">
		<stop  offset="0" style="stop-color:#FFFFFF"/>
		<stop  offset="1" style="stop-color:#D2BABB"/>
	</linearGradient>
	<path style="fill:url(#SVGID_00000055694257396969053970000006392228606025437334_);" d="M410.1,161.4l-89,101.9
		c28.3-43,25.3-96.2-17-138.5l-13.9-13.9l-81.4,81.4l32.5,32.4l43.3-43.3c9.7,21.3,5.1,45-16.4,66.5c-18.9,18.9-40.7,26.2-61.1,23.1
		c-3.7-43-3.1-94.3,10.9-138c3.2,0.1,6.2,0.4,9.1,1.1l12.4-45.6c22.9-32.9,59.8-54.7,117.7-53.9l10.6,16.3l45.2,69.3
		C421.4,133,420.2,149.8,410.1,161.4z M213.8,322.8c3.9,22.5,7.7,37.7,8.4,40.4c8.1-0.9,15.9-4.8,21.8-11.5l53.5-61.2
		C272.4,312.5,242.7,323.1,213.8,322.8z"/>
	
		<linearGradient id="SVGID_00000093855259936585951020000009929747309115877290_" gradientUnits="userSpaceOnUse" x1="240.0028" y1="23.6453" x2="232.2249" y2="343.9516">
		<stop  offset="0" style="stop-color:#FFFFFF"/>
		<stop  offset="1" style="stop-color:#D2BABB"/>
	</linearGradient>
	<path style="fill:url(#SVGID_00000093855259936585951020000009929747309115877290_);" d="M357.2,34.6c-57.9-0.8-94.8,21-117.7,53.9
		l1.1-4c-35.5-8.1-77,2.8-108.1,33.9c-3.2,3.2-6.3,6.6-9,10.1c-9.7-60.7,4.8-109.4,76.1-109.4h129C340.1,19.1,350.9,24.9,357.2,34.6
		z M218,133c-15.8-0.5-34.2,6.4-49.5,21.7c-18.7,18.7-24.8,43.6-17.5,66.7v0.1c1.2,3.2,2.5,6.3,3.7,9.4c0.1,0.2,0.2,0.4,0.3,0.6
		c3.5,6.9,8.4,13.6,14.4,19.7c11,11,24,17.8,37.7,19.9C203.4,228,204,176.8,218,133z M213.8,322.8c-5.1-0.1-10.4-0.5-15.5-1.2
		c12.5,23.1,21.9,38.6,23.8,41.6h0.1C221.5,360.5,217.6,345.3,213.8,322.8z"/>
</g>
</svg>
