<?xml version="1.0" encoding="utf-8"?>
<!-- Generator: Adobe Illustrator 25.4.1, SVG Export Plug-In . SVG Version: 6.00 Build 0)  -->
<svg version="1.1" id="Layer_1" xmlns="http://www.w3.org/2000/svg" xmlns:xlink="http://www.w3.org/1999/xlink" x="0px" y="0px"
	 viewBox="0 0 430 382.4" style="enable-background:new 0 0 430 382.4;" xml:space="preserve">
<style type="text/css">
	.st0{fill:url(#SVGID_1_);}
	.st1{fill:url(#SVGID_00000021836334405522494320000011989858001949725844_);}
	.st2{fill:url(#SVGID_00000080886465378480277660000002756940206401365944_);}
	.st3{fill:url(#SVGID_00000033341480743395347310000002225967459422655154_);}
	.st4{fill:#212728;}
	.st5{fill:url(#SVGID_00000098931800115114713670000017370487113982320030_);}
	.st6{fill:url(#SVGID_00000091716781663875429460000004109371269675891897_);}
	.st7{fill:url(#SVGID_00000119091999258036920670000013815777888091833759_);}
	.st8{fill:url(#SVGID_00000025412849719946708750000017260289611956104630_);}
	.st9{fill:url(#SVGID_00000085216869308162291480000015090998547070743724_);}
	.st10{fill:url(#SVGID_00000026883048006819936250000006560302336322111366_);}
	.st11{fill:url(#SVGID_00000073691779440218321140000012199717574941805240_);}
	.st12{fill:url(#SVGID_00000118386320846277455530000010048896268796067979_);}
	.st13{fill:#FFFFFF;}
	.st14{fill:url(#SVGID_00000042018432479128170370000005358092884439397272_);}
	.st15{fill:url(#SVGID_00000002345660175901807070000016598929144000798894_);}
	.st16{fill:url(#SVGID_00000029015321956904334590000006525655389963433151_);}
	.st17{fill:url(#SVGID_00000163782459450223234700000010619650742312132273_);}
	.st18{fill:url(#SVGID_00000032642891282710661520000011552587192742595718_);}
	.st19{fill:url(#SVGID_00000093892416114438819630000011793400846590430897_);}
	.st20{fill:url(#SVGID_00000093149271797589325850000000607716324448318593_);}
	.st21{fill:url(#SVGID_00000090258776965980127290000003689533548849440386_);}
	.st22{fill:url(#SVGID_00000132781952779629806380000005749303423958742194_);}
	.st23{fill:url(#SVGID_00000023970887146022479820000017605896485660060313_);}
	.st24{fill:url(#SVGID_00000020389846291345985980000010417279671237910944_);}
	.st25{fill:url(#SVGID_00000127004809182854087590000007186899417885136793_);}
</style>
<g>
	<linearGradient id="SVGID_1_" gradientUnits="userSpaceOnUse" x1="145.8706" y1="226.3887" x2="149.6193" y2="226.3887">
		<stop  offset="0" style="stop-color:#FF364E"/>
		<stop  offset="1" style="stop-color:#5B0404"/>
	</linearGradient>
	<path class="st0" d="M145.9,221.7c1.2,3.2,2.5,6.3,3.7,9.4C148.1,228,146.9,224.9,145.9,221.7z"/>
	
		<linearGradient id="SVGID_00000141424427811394174560000016965975103045308341_" gradientUnits="userSpaceOnUse" x1="226.5594" y1="331.8139" x2="87.2651" y2="52.5182">
		<stop  offset="0" style="stop-color:#FF364E"/>
		<stop  offset="1" style="stop-color:#5B0404"/>
	</linearGradient>
	<path style="fill:url(#SVGID_00000141424427811394174560000016965975103045308341_);" d="M118.4,128.6C87,167.6,83.4,220,107,261.9
		l-85.6-96c-10.2-11.3-11.5-28-3.4-40.9l56.4-89.7c6.3-9.9,17.2-15.9,28.9-15.9h91.1C123.2,19.3,108.7,67.9,118.4,128.6z
		 M193.2,321.8L193.2,321.8c-18.4-2.7-36-9.9-51.7-21.3l46.1,51.7c7.8,8.7,18.8,12.4,29.3,11.2C215.1,360.4,205.6,344.8,193.2,321.8
		z"/>
	
		<linearGradient id="SVGID_00000147214527215918365330000016563682901618547104_" gradientUnits="userSpaceOnUse" x1="289.7053" y1="355.019" x2="314.453" y2="93.4002">
		<stop  offset="0" style="stop-color:#FF364E"/>
		<stop  offset="1" style="stop-color:#5B0404"/>
	</linearGradient>
	<path style="fill:url(#SVGID_00000147214527215918365330000016563682901618547104_);" d="M405,161.6l-89,101.9
		c28.3-43,25.3-96.2-17-138.5l-13.9-13.9l-81.4,81.4l32.5,32.4l43.3-43.3c9.7,21.3,5.1,45-16.4,66.5c-18.9,18.9-40.7,26.2-61.1,23.1
		c-3.7-43-3.1-94.3,10.9-138c3.2,0.1,6.2,0.4,9.1,1.1l12.4-45.6c22.9-32.9,59.8-54.7,117.7-53.9l10.6,16.3l45.2,69.3
		C416.3,133.3,415.1,150,405,161.6z M208.7,323c3.9,22.5,7.7,37.7,8.4,40.4c8.1-0.9,15.9-4.8,21.8-11.5l53.5-61.2
		C267.3,312.8,237.6,323.3,208.7,323z"/>
	
		<linearGradient id="SVGID_00000013191761003794721560000006429813707295391143_" gradientUnits="userSpaceOnUse" x1="234.9071" y1="23.869" x2="227.1293" y2="344.1753">
		<stop  offset="0" style="stop-color:#FF364E"/>
		<stop  offset="1" style="stop-color:#5B0404"/>
	</linearGradient>
	<path style="fill:url(#SVGID_00000013191761003794721560000006429813707295391143_);" d="M352.1,34.8c-57.9-0.8-94.8,21-117.7,53.9
		l1.1-4c-35.5-8.1-77,2.8-108.1,33.9c-3.2,3.2-6.3,6.6-9,10.1c-9.7-60.7,4.8-109.4,76.1-109.4h129C335,19.3,345.8,25.1,352.1,34.8z
		 M212.9,133.3c-15.8-0.5-34.2,6.4-49.5,21.7c-18.7,18.7-24.8,43.6-17.5,66.7v0.1c1.2,3.2,2.5,6.3,3.7,9.4c0.1,0.2,0.2,0.4,0.3,0.6
		c3.5,6.9,8.4,13.6,14.4,19.7c11,11,24,17.8,37.7,19.9C198.4,228.3,198.9,177,212.9,133.3z M208.7,323c-5.1-0.1-10.4-0.5-15.5-1.2
		c12.5,23.1,21.9,38.6,23.8,41.6h0.1C216.4,360.7,212.6,345.5,208.7,323z"/>
</g>
</svg>
